<svg xmlns="http://www.w3.org/2000/svg" viewBox="0 0 312.84 36.44"><defs><style>.cls-1{fill:#be1e2d;}.cls-2{fill:#fff;}</style></defs><g id="Layer_2" data-name="Layer 2"><g id="Layer_1-2" data-name="Layer 1"><path class="cls-1" d="M5.36,1.64A5.68,5.68,0,0,0,0,7.3V32.16a5.66,5.66,0,0,0,5.36,5.66Z" transform="translate(0 -1.63)"/><path class="cls-1" d="M18.46,26.26a13.29,13.29,0,0,1-2-3.23,8.11,8.11,0,0,1-.66-3.13,8.58,8.58,0,0,1,.63-3.18,12,12,0,0,1,2-3.23L28.54,1.63H11V37.84H28.33Z" transform="translate(0 -1.63)"/><path class="cls-1" d="M21.94,17.6a4.64,4.64,0,0,0-.57,2.14,4.29,4.29,0,0,0,.57,2.08,17.72,17.72,0,0,0,1.68,2.42l9.82,11.5a5.62,5.62,0,0,0,1.27-3.58V7.3a5.64,5.64,0,0,0-1.39-3.72l-9.7,11.55A16.2,16.2,0,0,0,21.94,17.6Z" transform="translate(0 -1.63)"/><path class="cls-2" d="M42.28,2.38V14.59a13.51,13.51,0,0,1,4-2.43,12.7,12.7,0,0,1,4.7-.87,14,14,0,0,1,5.44,1,12.26,12.26,0,0,1,4.16,2.82,11.93,11.93,0,0,1,2.62,4.17,14,14,0,0,1,.89,4.94V37.62H59.62V24.4A8.56,8.56,0,0,0,58.42,20a8.85,8.85,0,0,0-3.1-3.1,8.44,8.44,0,0,0-4.38-1.16,8.26,8.26,0,0,0-4.35,1.16A8.82,8.82,0,0,0,43.48,20a8.7,8.7,0,0,0-1.2,4.38V37.55H37.84V2.38Z" transform="translate(0 -1.63)"/><path class="cls-2" d="M86.83,37.55V34.26a13.42,13.42,0,0,1-4,2.42,13.18,13.18,0,0,1-11.29-.89A13.62,13.62,0,0,1,66.83,31a13.08,13.08,0,0,1-1.78-6.62V11.29h4.47V24.47a8.84,8.84,0,0,0,1.17,4.38,8.64,8.64,0,0,0,3.13,3.08,8.34,8.34,0,0,0,4.36,1.18,8.42,8.42,0,0,0,4.37-1.18,8.91,8.91,0,0,0,3.11-3.11,8.71,8.71,0,0,0,1.17-4.4V11.29H91.3V37.55Z" transform="translate(0 -1.63)"/><path class="cls-2" d="M96.75,11.29v3l.12,0a1.2,1.2,0,0,0,.54-.21,6.1,6.1,0,0,0,.87-.59c.36-.26.73-.52,1.11-.75a3.15,3.15,0,0,1,1.06-.45,13,13,0,0,1,4.91-1,19.16,19.16,0,0,1,5.13,1c2.14.66,4.07,2.28,5.82,4.87A13.48,13.48,0,0,1,123.22,12a13,13,0,0,1,4.07-.69,13.24,13.24,0,0,1,4.5.83,13.65,13.65,0,0,1,5.83,4.35,12.76,12.76,0,0,1,2.66,6.75c.05,2,.07,4,.07,6l0,8.35h-4.45V24.49a8.72,8.72,0,0,0-2.16-5.78,8.28,8.28,0,0,0-5.63-2.9,6.5,6.5,0,0,0-1-.05,8.83,8.83,0,0,0-7,3.6,8.06,8.06,0,0,0-1.57,4.19c0,2.19,0,4.38,0,6.54v7.46h-4.47V24.45a8.64,8.64,0,0,0-2.14-5.74,8.2,8.2,0,0,0-5.62-2.9,6.44,6.44,0,0,0-1-.05,8.88,8.88,0,0,0-7,3.58,7.8,7.8,0,0,0-1.58,4.19c0,2.16,0,4.35,0,6.52v7.5H92.28V11.29Z" transform="translate(0 -1.63)"/><path class="cls-2" d="M161.05,13.08a13.48,13.48,0,0,1,4.73,4.73,13,13,0,0,1,1.81,6.61V37.55h-4.47V34.26a13,13,0,0,1-4,2.42,12.58,12.58,0,0,1-4.7.87,12.75,12.75,0,0,1-6.59-1.76A13.35,13.35,0,0,1,143.12,31a12.39,12.39,0,0,1-1.79-6.59,12.54,12.54,0,0,1,1.79-6.59,13.35,13.35,0,0,1,4.75-4.75,13,13,0,0,1,13.18,0Zm-11,3.84A8.77,8.77,0,0,0,147,20.05a8.9,8.9,0,0,0,0,8.75,8.7,8.7,0,0,0,3.13,3.13,8.72,8.72,0,0,0,8.76,0A8.83,8.83,0,0,0,162,28.8a8.83,8.83,0,0,0,0-8.75,8.91,8.91,0,0,0-3.12-3.13,8.85,8.85,0,0,0-8.76,0Z" transform="translate(0 -1.63)"/><path class="cls-2" d="M173,2.38V37.55h-4.47V2.38Z" transform="translate(0 -1.63)"/><path class="cls-2" d="M193.73,13.08a13.35,13.35,0,0,1,4.75,4.75,12.54,12.54,0,0,1,1.79,6.59A12.39,12.39,0,0,1,198.48,31a13.35,13.35,0,0,1-4.75,4.78,13.22,13.22,0,0,1-13.18,0A13.43,13.43,0,0,1,175.8,31,12.39,12.39,0,0,1,174,24.42a12.54,12.54,0,0,1,1.79-6.59,13.43,13.43,0,0,1,4.75-4.75,13,13,0,0,1,13.18,0Zm-11,3.84a8.75,8.75,0,0,0-3.12,3.13,8.83,8.83,0,0,0,0,8.75,8.67,8.67,0,0,0,3.12,3.13,8.72,8.72,0,0,0,8.76,0,8.94,8.94,0,0,0,3.13-3.13,8.9,8.9,0,0,0,0-8.75,9,9,0,0,0-3.13-3.13,8.85,8.85,0,0,0-8.76,0Z" transform="translate(0 -1.63)"/><path class="cls-2" d="M215.74,28.71H201.25V24.23h14.49Z" transform="translate(0 -1.63)"/><path class="cls-2" d="M231.88,38.06A12.7,12.7,0,0,1,226.7,37a13,13,0,0,1-4.26-3,13.74,13.74,0,0,1-2.88-4.42,13.89,13.89,0,0,1-1-5.4,13.62,13.62,0,0,1,1-5.36,14,14,0,0,1,2.88-4.38,13.32,13.32,0,0,1,4.26-3,12.87,12.87,0,0,1,5.18-1.06,12.62,12.62,0,0,1,4.26.72,12.12,12.12,0,0,1,3.64,2.06,11.63,11.63,0,0,1,2.66,3.18l-2.08,1.24a9.8,9.8,0,0,0-3.62-3.5,10,10,0,0,0-4.94-1.26,9.86,9.86,0,0,0-4.12.88,11,11,0,0,0-3.38,2.42,11.43,11.43,0,0,0-2.3,3.6,11.63,11.63,0,0,0-.84,4.42A12,12,0,0,0,222,28.7a10.82,10.82,0,0,0,2.28,3.62,10.51,10.51,0,0,0,3.4,2.42,9.83,9.83,0,0,0,4.14.88,10,10,0,0,0,4.94-1.26,9.85,9.85,0,0,0,3.62-3.46l2.08,1.24a11.12,11.12,0,0,1-2.66,3.16,12.28,12.28,0,0,1-3.64,2A12.62,12.62,0,0,1,231.88,38.06Z" transform="translate(0 -1.63)"/><path class="cls-2" d="M249.16,37.62h-2.48v-12a9.14,9.14,0,0,1,.84-4,6.39,6.39,0,0,1,2.42-2.72,7.11,7.11,0,0,1,3.82-1,8.4,8.4,0,0,1,1.76.18,7.35,7.35,0,0,1,1.6.54v2.52a5.78,5.78,0,0,0-1.52-.64,7,7,0,0,0-1.64-.2,4.43,4.43,0,0,0-3.5,1.48,5.78,5.78,0,0,0-1.3,4Z" transform="translate(0 -1.63)"/><path class="cls-2" d="M268.39,38a9.27,9.27,0,0,1-5-1.38A10.05,10.05,0,0,1,259.85,33a10.23,10.23,0,0,1-1.3-5.1,9.92,9.92,0,0,1,1.34-5.06,10.16,10.16,0,0,1,3.65-3.66,10.27,10.27,0,0,1,14,3.6,9.79,9.79,0,0,1,1.37,5.12v9.76h-2.37V30.18l1-1.52a9.29,9.29,0,0,1-1.2,4.72,9.12,9.12,0,0,1-3.26,3.38A8.88,8.88,0,0,1,268.39,38Zm.33-2.36a7.38,7.38,0,0,0,3.91-1.06A7.85,7.85,0,0,0,275.42,24a7.85,7.85,0,0,0-2.79-2.82,7.74,7.74,0,0,0-7.82,0A8.1,8.1,0,0,0,262.05,24a8,8,0,0,0,0,7.76,7.93,7.93,0,0,0,2.76,2.82A7.33,7.33,0,0,0,268.72,35.66Z" transform="translate(0 -1.63)"/><path class="cls-2" d="M297,20.46H283.32V18.22H297Zm-7.41,17.16h-2.47V15.3a6.69,6.69,0,0,1,.77-3.24,5.77,5.77,0,0,1,2.27-2.22A7.29,7.29,0,0,1,293.76,9a8.25,8.25,0,0,1,1.82.2,7.76,7.76,0,0,1,1.58.56v2.48a5.29,5.29,0,0,0-1.46-.68,6.2,6.2,0,0,0-1.74-.24,5,5,0,0,0-3.16.92,3.7,3.7,0,0,0-1.17,3.08Z" transform="translate(0 -1.63)"/><path class="cls-2" d="M312.84,20.46H298.32V18.22h14.52ZM309,38.06a6.87,6.87,0,0,1-3.5-.84,5.54,5.54,0,0,1-2.24-2.38,7.8,7.8,0,0,1-.79-3.58V13.06h2.49V31.18a4.61,4.61,0,0,0,1.16,3.36,4.08,4.08,0,0,0,3.08,1.2,5.84,5.84,0,0,0,3.68-1.32v2.4a6,6,0,0,1-1.79.9A6.45,6.45,0,0,1,309,38.06Z" transform="translate(0 -1.63)"/></g></g></svg>