<svg xmlns="http://www.w3.org/2000/svg" viewBox="0 0 312.84 69.13"><defs><style>.cls-1{fill:#be1e2d;}.cls-2{fill:#414042;}</style></defs><g id="Layer_2" data-name="Layer 2"><g id="Layer_1-2" data-name="Layer 1"><path class="cls-1" d="M5.36,1.64A5.68,5.68,0,0,0,0,7.3V32.16a5.66,5.66,0,0,0,5.36,5.66Z" transform="translate(0 -1.63)"/><path class="cls-1" d="M18.46,26.26a13.29,13.29,0,0,1-2-3.23,8.11,8.11,0,0,1-.66-3.13,8.58,8.58,0,0,1,.63-3.18,12,12,0,0,1,2-3.23L28.54,1.63H11V37.84H28.33Z" transform="translate(0 -1.63)"/><path class="cls-1" d="M21.94,17.6a4.61,4.61,0,0,0-.57,2.14,4.29,4.29,0,0,0,.57,2.08,17.1,17.1,0,0,0,1.68,2.41l9.82,11.51a5.62,5.62,0,0,0,1.27-3.58V7.3a5.64,5.64,0,0,0-1.39-3.72l-9.7,11.55A16.2,16.2,0,0,0,21.94,17.6Z" transform="translate(0 -1.63)"/><path class="cls-2" d="M42.28,2.38V14.59a13.51,13.51,0,0,1,4-2.43,12.7,12.7,0,0,1,4.7-.87,14,14,0,0,1,5.44,1,12.26,12.26,0,0,1,4.16,2.82,11.93,11.93,0,0,1,2.62,4.17,14,14,0,0,1,.89,4.94V37.62H59.62V24.4A8.56,8.56,0,0,0,58.42,20a8.85,8.85,0,0,0-3.1-3.1,8.44,8.44,0,0,0-4.38-1.16,8.26,8.26,0,0,0-4.35,1.16A8.82,8.82,0,0,0,43.48,20a8.7,8.7,0,0,0-1.2,4.38V37.55H37.84V2.38Z" transform="translate(0 -1.63)"/><path class="cls-2" d="M86.83,37.55V34.26a13.42,13.42,0,0,1-4,2.42,13.18,13.18,0,0,1-11.29-.89A13.62,13.62,0,0,1,66.83,31a13.08,13.08,0,0,1-1.78-6.62V11.29h4.47V24.47a8.84,8.84,0,0,0,1.17,4.38,8.56,8.56,0,0,0,3.13,3.08,8.34,8.34,0,0,0,4.36,1.18,8.42,8.42,0,0,0,4.37-1.18,8.91,8.91,0,0,0,3.11-3.11,8.71,8.71,0,0,0,1.17-4.4V11.29H91.3V37.55Z" transform="translate(0 -1.63)"/><path class="cls-2" d="M96.75,11.29v3l.12,0a1.2,1.2,0,0,0,.54-.21,6.1,6.1,0,0,0,.87-.59c.36-.26.73-.52,1.11-.75a3.15,3.15,0,0,1,1.06-.45,13,13,0,0,1,4.91-1,19.16,19.16,0,0,1,5.13,1c2.14.66,4.07,2.28,5.82,4.87A13.48,13.48,0,0,1,123.22,12a13,13,0,0,1,4.07-.69,13.24,13.24,0,0,1,4.5.83,13.65,13.65,0,0,1,5.83,4.35,12.76,12.76,0,0,1,2.66,6.75c.05,2,.07,4,.07,6l0,8.35h-4.45V24.49a8.72,8.72,0,0,0-2.16-5.78,8.28,8.28,0,0,0-5.63-2.9,6.5,6.5,0,0,0-1-.05,8.83,8.83,0,0,0-7,3.6,8.06,8.06,0,0,0-1.57,4.19c0,2.19,0,4.38,0,6.54v7.46h-4.47V24.45a8.64,8.64,0,0,0-2.14-5.74,8.2,8.2,0,0,0-5.62-2.9,6.44,6.44,0,0,0-1-.05,8.88,8.88,0,0,0-7,3.58,7.8,7.8,0,0,0-1.58,4.19c0,2.16,0,4.35,0,6.52v7.5H92.28V11.29Z" transform="translate(0 -1.63)"/><path class="cls-2" d="M161.05,13.08a13.48,13.48,0,0,1,4.73,4.73,13,13,0,0,1,1.81,6.61V37.55h-4.47V34.26a13,13,0,0,1-4,2.42,12.58,12.58,0,0,1-4.7.87,12.75,12.75,0,0,1-6.59-1.76A13.35,13.35,0,0,1,143.12,31a12.39,12.39,0,0,1-1.79-6.59,12.54,12.54,0,0,1,1.79-6.59,13.35,13.35,0,0,1,4.75-4.75,13,13,0,0,1,13.18,0Zm-11,3.84A8.77,8.77,0,0,0,147,20.05a8.9,8.9,0,0,0,0,8.75,8.7,8.7,0,0,0,3.13,3.13,8.72,8.72,0,0,0,8.76,0A8.83,8.83,0,0,0,162,28.8a8.83,8.83,0,0,0,0-8.75,8.91,8.91,0,0,0-3.12-3.13,8.85,8.85,0,0,0-8.76,0Z" transform="translate(0 -1.63)"/><path class="cls-2" d="M173,2.38V37.55h-4.47V2.38Z" transform="translate(0 -1.63)"/><path class="cls-2" d="M193.73,13.08a13.35,13.35,0,0,1,4.75,4.75,12.54,12.54,0,0,1,1.79,6.59A12.39,12.39,0,0,1,198.48,31a13.35,13.35,0,0,1-4.75,4.78,13.22,13.22,0,0,1-13.18,0A13.43,13.43,0,0,1,175.8,31,12.39,12.39,0,0,1,174,24.42a12.54,12.54,0,0,1,1.79-6.59,13.43,13.43,0,0,1,4.75-4.75,13,13,0,0,1,13.18,0Zm-11,3.84a8.75,8.75,0,0,0-3.12,3.13,8.83,8.83,0,0,0,0,8.75,8.67,8.67,0,0,0,3.12,3.13,8.72,8.72,0,0,0,8.76,0,8.94,8.94,0,0,0,3.13-3.13,8.9,8.9,0,0,0,0-8.75,9,9,0,0,0-3.13-3.13,8.85,8.85,0,0,0-8.76,0Z" transform="translate(0 -1.63)"/><path class="cls-2" d="M215.74,28.71H201.25V24.23h14.49Z" transform="translate(0 -1.63)"/><path class="cls-2" d="M231.88,38.06A12.7,12.7,0,0,1,226.7,37a13,13,0,0,1-4.26-3,13.74,13.74,0,0,1-2.88-4.42,13.89,13.89,0,0,1-1-5.4,13.62,13.62,0,0,1,1-5.36,14,14,0,0,1,2.88-4.38,13.32,13.32,0,0,1,4.26-3,12.87,12.87,0,0,1,5.18-1.06,12.62,12.62,0,0,1,4.26.72,12.12,12.12,0,0,1,3.64,2.06,11.63,11.63,0,0,1,2.66,3.18l-2.08,1.24a9.8,9.8,0,0,0-3.62-3.5,10,10,0,0,0-4.94-1.26,9.86,9.86,0,0,0-4.12.88,11,11,0,0,0-3.38,2.42,11.43,11.43,0,0,0-2.3,3.6,11.63,11.63,0,0,0-.84,4.42A12,12,0,0,0,222,28.7a10.82,10.82,0,0,0,2.28,3.62,10.51,10.51,0,0,0,3.4,2.42,9.83,9.83,0,0,0,4.14.88,10,10,0,0,0,4.94-1.26,9.85,9.85,0,0,0,3.62-3.46l2.08,1.24a11.12,11.12,0,0,1-2.66,3.16,12.28,12.28,0,0,1-3.64,2A12.62,12.62,0,0,1,231.88,38.06Z" transform="translate(0 -1.63)"/><path class="cls-2" d="M249.16,37.62h-2.48v-12a9.14,9.14,0,0,1,.84-4,6.39,6.39,0,0,1,2.42-2.72,7.11,7.11,0,0,1,3.82-1,8.4,8.4,0,0,1,1.76.18,7.35,7.35,0,0,1,1.6.54v2.52a5.78,5.78,0,0,0-1.52-.64,7,7,0,0,0-1.64-.2,4.43,4.43,0,0,0-3.5,1.48,5.78,5.78,0,0,0-1.3,4Z" transform="translate(0 -1.63)"/><path class="cls-2" d="M268.4,38a9.3,9.3,0,0,1-5-1.38A10,10,0,0,1,259.86,33a10.13,10.13,0,0,1-1.3-5.1,9.82,9.82,0,0,1,1.34-5.06,10.39,10.39,0,0,1,14-3.68,10.24,10.24,0,0,1,3.66,3.62,9.87,9.87,0,0,1,1.36,5.12v9.76h-2.36V30.18l1-1.52a9.39,9.39,0,0,1-1.2,4.72,9.19,9.19,0,0,1-3.26,3.38A8.93,8.93,0,0,1,268.4,38Zm.32-2.36a7.44,7.44,0,0,0,3.92-1.06,7.75,7.75,0,0,0,2.78-2.82,7.89,7.89,0,0,0,0-7.76,7.91,7.91,0,0,0-2.78-2.82,7.53,7.53,0,0,0-3.92-1.06,7.38,7.38,0,0,0-3.9,1.06A7.93,7.93,0,0,0,262.06,24a7.89,7.89,0,0,0,0,7.76,7.77,7.77,0,0,0,2.76,2.82A7.29,7.29,0,0,0,268.72,35.66Z" transform="translate(0 -1.63)"/><path class="cls-2" d="M297,20.46H283.32V18.22H297Zm-7.4,17.16h-2.48V15.3a6.58,6.58,0,0,1,.78-3.24,5.68,5.68,0,0,1,2.26-2.22A7.29,7.29,0,0,1,293.76,9a8.25,8.25,0,0,1,1.82.2,7.55,7.55,0,0,1,1.58.56v2.48a5.29,5.29,0,0,0-1.46-.68,6.2,6.2,0,0,0-1.74-.24,5,5,0,0,0-3.16.92,3.69,3.69,0,0,0-1.16,3.08Z" transform="translate(0 -1.63)"/><path class="cls-2" d="M312.84,20.46H298.32V18.22h14.52ZM309,38.06a6.9,6.9,0,0,1-3.5-.84,5.54,5.54,0,0,1-2.24-2.38,7.8,7.8,0,0,1-.78-3.58V13.06h2.48V31.18a4.61,4.61,0,0,0,1.16,3.36,4.08,4.08,0,0,0,3.08,1.2,5.66,5.66,0,0,0,2-.36,5.75,5.75,0,0,0,1.68-1v2.4a6.08,6.08,0,0,1-1.78.9A6.51,6.51,0,0,1,309,38.06Z" transform="translate(0 -1.63)"/><path class="cls-1" d="M234.28,52.84a5.1,5.1,0,0,0-5.19,0,5.13,5.13,0,0,0-1.86,1.87,5,5,0,0,0-.69,2.58,5.15,5.15,0,0,0,2.55,4.49,5.22,5.22,0,0,0,5.19,0,5.29,5.29,0,0,0,1.86-1.87,5,5,0,0,0,.7-2.62,4.9,4.9,0,0,0-.7-2.58A5.29,5.29,0,0,0,234.28,52.84Z" transform="translate(0 -1.63)"/><path class="cls-1" d="M215.17,52.83a5.18,5.18,0,0,0-5.2,0,5.29,5.29,0,0,0-1.86,1.87,5,5,0,0,0-.69,2.59,5.1,5.1,0,0,0,.69,2.62A5.6,5.6,0,0,0,210,61.8a5.05,5.05,0,0,0,5.2,0A5.43,5.43,0,0,0,217,59.91a5.2,5.2,0,0,0,.68-2.62,5.11,5.11,0,0,0-2.54-4.46Z" transform="translate(0 -1.63)"/><path class="cls-1" d="M307.16,43.82H159.37a5.69,5.69,0,0,0-5.68,5.68V65.08a5.69,5.69,0,0,0,5.68,5.68H307.16a5.69,5.69,0,0,0,5.68-5.68V49.5A5.69,5.69,0,0,0,307.16,43.82ZM170.43,57.55H160.22a5.35,5.35,0,0,0,.47,2,4.93,4.93,0,0,0,1.79,2.12,4.85,4.85,0,0,0,2.72.79,5.35,5.35,0,0,0,2.39-.55,4.49,4.49,0,0,0,1.81-1.76l.67.41a5.36,5.36,0,0,1-2.07,2,5.83,5.83,0,0,1-7.88-2.29,6.7,6.7,0,0,1,0-6.08,5.53,5.53,0,0,1,2-2.17,5.22,5.22,0,0,1,2.92-.82,5.47,5.47,0,0,1,2.85.73,5.21,5.21,0,0,1,1.92,2,6.07,6.07,0,0,1,.68,2.93Zm27.19,5.55h-.84v-6a6.2,6.2,0,0,0-.48-2.46,4.41,4.41,0,0,0-1.4-1.81,4.07,4.07,0,0,0-4.49,0,4.15,4.15,0,0,0-1.4,1.76,6.09,6.09,0,0,0-.48,2.45V63.1h-.84V57a6.15,6.15,0,0,0-.49-2.47,4.16,4.16,0,0,0-1.44-1.76,3.85,3.85,0,0,0-2.25-.66,3.55,3.55,0,0,0-2.25.69,4.39,4.39,0,0,0-1.35,1.81,6.56,6.56,0,0,0-.45,2.46v6h-.84V57a6.9,6.9,0,0,1,.58-2.91,5,5,0,0,1,1.67-2,4.38,4.38,0,0,1,2.59-.76,4.73,4.73,0,0,1,2.44.61,4.61,4.61,0,0,1,1.66,1.65,5,5,0,0,1,.57,1.51,5,5,0,0,1,.55-1.51,4.6,4.6,0,0,1,1.6-1.65,4.43,4.43,0,0,1,2.35-.61,4.64,4.64,0,0,1,2.68.76,5,5,0,0,1,1.71,2,6.82,6.82,0,0,1,.6,2.93Zm20.14-2.77a6,6,0,0,1-2.14,2.19,5.92,5.92,0,0,1-6,0,6,6,0,0,1-2.08-2.12c-.06-.11-.11-.22-.16-.33v8.33h-.84V57.27a5.92,5.92,0,0,1,3-5.18,6,6,0,0,1,3-.78,5.92,5.92,0,0,1,6,6A6,6,0,0,1,217.76,60.33Zm19.13,0a6,6,0,0,1-2.15,2.19,6.21,6.21,0,0,1-6.1,0,6.13,6.13,0,0,1-2.16-2.19,6,6,0,0,1-.8-3,5.63,5.63,0,0,1,.82-3,6.13,6.13,0,0,1,2.18-2.17,5.69,5.69,0,0,1,3-.82,5.79,5.79,0,0,1,3.08.82,6,6,0,0,1,2.92,5.16A6,6,0,0,1,236.89,60.3Zm14.66-7.55a3.39,3.39,0,0,0-.89-.39,3.66,3.66,0,0,0-1-.13,2.79,2.79,0,0,0-2.26,1,4,4,0,0,0-.84,2.62V63.1h-.84V55.8a5.35,5.35,0,0,1,.47-2.29A3.5,3.5,0,0,1,247.54,52a4,4,0,0,1,2.09-.54,4.74,4.74,0,0,1,1,.11,3.67,3.67,0,0,1,.91.33Zm8,10.35h-.84V51.53h.84ZM259.71,48a.69.69,0,0,1-.25.28.73.73,0,0,1-.37.1.75.75,0,0,1-.36-.1.73.73,0,0,1-.27-.28.86.86,0,0,1-.09-.39.83.83,0,0,1,.09-.39.76.76,0,0,1,.63-.36.73.73,0,0,1,.37.1.69.69,0,0,1,.25.26.73.73,0,0,1,.1.39A.76.76,0,0,1,259.71,48Zm19.63,9.5a6.55,6.55,0,0,1-.66,3,5.07,5.07,0,0,1-1.84,2.07,5.29,5.29,0,0,1-2.82.74,5,5,0,0,1-2.78-.76,5.07,5.07,0,0,1-1.81-2.07,6.69,6.69,0,0,1-.65-3V51.53h.84v5.93a5.93,5.93,0,0,0,.52,2.48,4.33,4.33,0,0,0,1.51,1.86,4,4,0,0,0,2.37.7,4.08,4.08,0,0,0,2.41-.7A4.53,4.53,0,0,0,278,59.94a5.92,5.92,0,0,0,.54-2.53V51.53h.84Zm27.82,5.59h-.84v-6a6.2,6.2,0,0,0-.48-2.46,4.5,4.5,0,0,0-1.4-1.81,3.74,3.74,0,0,0-2.3-.69,3.66,3.66,0,0,0-2.19.66,4.1,4.1,0,0,0-1.41,1.76,6.09,6.09,0,0,0-.48,2.45V63.1h-.84V57a6,6,0,0,0-.49-2.47,4.16,4.16,0,0,0-1.44-1.76,3.82,3.82,0,0,0-2.24-.66,3.58,3.58,0,0,0-2.26.69,4.37,4.37,0,0,0-1.34,1.81,6.38,6.38,0,0,0-.46,2.46v6h-.84V57a6.91,6.91,0,0,1,.59-2.91,4.88,4.88,0,0,1,1.67-2,4.35,4.35,0,0,1,2.59-.76,4.73,4.73,0,0,1,2.44.61,4.66,4.66,0,0,1,1.65,1.65,4.73,4.73,0,0,1,.57,1.51,5.24,5.24,0,0,1,.56-1.51,4.38,4.38,0,0,1,3.95-2.26,4.59,4.59,0,0,1,2.67.76,4.91,4.91,0,0,1,1.72,2,6.82,6.82,0,0,1,.6,2.93Z" transform="translate(0 -1.63)"/><path class="cls-1" d="M167.35,52.71a4.71,4.71,0,0,0-2.39-.6,4.48,4.48,0,0,0-2.38.63A4.69,4.69,0,0,0,161,54.45a5.54,5.54,0,0,0-.69,2.38h9.36a5.12,5.12,0,0,0-.63-2.48A4.38,4.38,0,0,0,167.35,52.71Z" transform="translate(0 -1.63)"/></g></g></svg>